<?xml version="1.0" encoding="UTF-8" standalone="no"?>
<!DOCTYPE svg PUBLIC "-//W3C//DTD SVG 1.1//EN"
 "http://www.w3.org/Graphics/SVG/1.1/DTD/svg11.dtd">
<!-- Generated by graphviz version 2.38.0 (20140413.2041)
 -->
<!-- Title: %3 Pages: 1 -->
<svg width="265pt" height="164pt"
 viewBox="0.00 0.00 264.77 164.47" xmlns="http://www.w3.org/2000/svg" xmlns:xlink="http://www.w3.org/1999/xlink">
<g id="graph0" class="graph" transform="scale(1 1) rotate(0) translate(4 160.468)">
<title>%3</title>
<polygon fill="white" stroke="none" points="-4,4 -4,-160.468 260.77,-160.468 260.77,4 -4,4"/>
<!-- &#45;1 -->
<g id="node1" class="node"><title>&#45;1</title>
<polygon fill="lightgray" stroke="black" points="119.385,-156.468 95.3848,-156.468 95.3848,-138.468 119.385,-138.468 119.385,-156.468"/>
<text text-anchor="middle" x="107.385" y="-145.268" font-family="Times New Roman,serif" font-size="9.00">&#45;1</text>
</g>
<!-- 21 -->
<g id="node4" class="node"><title>21</title>
<ellipse fill="white" stroke="black" cx="238.385" cy="-84.0833" rx="18.2703" ry="18.2703"/>
<text text-anchor="middle" x="238.385" y="-81.8833" font-family="Times New Roman,serif" font-size="9.00">21</text>
</g>
<!-- &#45;1&#45;&gt;21 -->
<g id="edge1" class="edge"><title>&#45;1&#45;&gt;21</title>
<path fill="none" stroke="green" stroke-width="0.203047" d="M119.638,-141.507C143.129,-131.953 193.652,-111.173 210.385,-102.468 211.717,-101.775 213.071,-101.041 214.427,-100.282"/>
<polygon fill="green" stroke="green" stroke-width="0.203047" points="216.401,-103.182 223.225,-95.0773 212.836,-97.157 216.401,-103.182"/>
</g>
<!-- 22 -->
<g id="node5" class="node"><title>22</title>
<ellipse fill="white" stroke="black" cx="18.3848" cy="-84.0833" rx="18.2703" ry="18.2703"/>
<text text-anchor="middle" x="18.3848" y="-81.8833" font-family="Times New Roman,serif" font-size="9.00">22</text>
</g>
<!-- &#45;1&#45;&gt;22 -->
<g id="edge2" class="edge"><title>&#45;1&#45;&gt;22</title>
<path fill="none" stroke="red" stroke-width="0.361569" d="M95.7496,-138.443C82.1074,-129.034 59.1546,-113.203 41.7838,-101.222"/>
<polygon fill="red" stroke="red" stroke-width="0.361569" points="43.5068,-98.1586 33.2876,-95.362 39.5324,-103.921 43.5068,-98.1586"/>
</g>
<!-- 23 -->
<g id="node6" class="node"><title>23</title>
<ellipse fill="white" stroke="black" cx="73.3848" cy="-84.0833" rx="18.2703" ry="18.2703"/>
<text text-anchor="middle" x="73.3848" y="-81.8833" font-family="Times New Roman,serif" font-size="9.00">23</text>
</g>
<!-- &#45;1&#45;&gt;23 -->
<g id="edge3" class="edge"><title>&#45;1&#45;&gt;23</title>
<path fill="none" stroke="green" stroke-width="0.44823" d="M102.94,-138.443C98.8606,-131.078 92.6021,-119.779 86.8928,-109.471"/>
<polygon fill="green" stroke="green" stroke-width="0.44823" points="89.7892,-107.477 81.8822,-100.425 83.6658,-110.868 89.7892,-107.477"/>
</g>
<!-- 24 -->
<g id="node7" class="node"><title>24</title>
<ellipse fill="white" stroke="black" cx="128.385" cy="-84.0833" rx="18.2703" ry="18.2703"/>
<text text-anchor="middle" x="128.385" y="-81.8833" font-family="Times New Roman,serif" font-size="9.00">24</text>
</g>
<!-- &#45;1&#45;&gt;24 -->
<g id="edge4" class="edge"><title>&#45;1&#45;&gt;24</title>
<path fill="none" stroke="green" stroke-width="0.293292" d="M110.13,-138.443C112.515,-131.472 116.105,-120.977 119.473,-111.133"/>
<polygon fill="green" stroke="green" stroke-width="0.293292" points="122.788,-112.257 122.713,-101.662 116.165,-109.991 122.788,-112.257"/>
</g>
<!-- 25 -->
<g id="node8" class="node"><title>25</title>
<ellipse fill="white" stroke="black" cx="183.385" cy="-84.0833" rx="18.2703" ry="18.2703"/>
<text text-anchor="middle" x="183.385" y="-81.8833" font-family="Times New Roman,serif" font-size="9.00">25</text>
</g>
<!-- &#45;1&#45;&gt;25 -->
<g id="edge5" class="edge"><title>&#45;1&#45;&gt;25</title>
<path fill="none" stroke="red" stroke-width="0.380472" d="M117.32,-138.443C128.487,-129.424 146.959,-114.504 161.536,-102.731"/>
<polygon fill="red" stroke="red" stroke-width="0.380472" points="164.003,-105.237 169.583,-96.2307 159.605,-99.7913 164.003,-105.237"/>
</g>
<!-- &#45;2 -->
<g id="node2" class="node"><title>&#45;2</title>
<polygon fill="lightgray" stroke="black" points="161.385,-156.468 137.385,-156.468 137.385,-138.468 161.385,-138.468 161.385,-156.468"/>
<text text-anchor="middle" x="149.385" y="-145.268" font-family="Times New Roman,serif" font-size="9.00">&#45;2</text>
</g>
<!-- &#45;2&#45;&gt;21 -->
<g id="edge6" class="edge"><title>&#45;2&#45;&gt;21</title>
<path fill="none" stroke="red" stroke-width="0.243817" d="M161.02,-138.443C174.662,-129.034 197.615,-113.203 214.986,-101.222"/>
<polygon fill="red" stroke="red" stroke-width="0.243817" points="217.237,-103.921 223.482,-95.362 213.263,-98.1586 217.237,-103.921"/>
</g>
<!-- &#45;2&#45;&gt;22 -->
<g id="edge7" class="edge"><title>&#45;2&#45;&gt;22</title>
<path fill="none" stroke="green" stroke-width="0.152798" d="M137.131,-141.507C113.641,-131.953 63.118,-111.173 46.3848,-102.468 45.0523,-101.775 43.6987,-101.041 42.3423,-100.282"/>
<polygon fill="green" stroke="green" stroke-width="0.152798" points="43.9335,-97.157 33.5448,-95.0773 40.369,-103.182 43.9335,-97.157"/>
</g>
<!-- &#45;2&#45;&gt;23 -->
<g id="edge8" class="edge"><title>&#45;2&#45;&gt;23</title>
<path fill="none" stroke="green" stroke-width="0.135355" d="M139.449,-138.443C128.282,-129.424 109.81,-114.504 95.234,-102.731"/>
<polygon fill="green" stroke="green" stroke-width="0.135355" points="97.165,-99.7913 87.1864,-96.2307 92.7666,-105.237 97.165,-99.7913"/>
</g>
<!-- &#45;2&#45;&gt;24 -->
<g id="edge9" class="edge"><title>&#45;2&#45;&gt;24</title>
<path fill="none" stroke="green" stroke-width="0.132516" d="M146.639,-138.443C144.255,-131.472 140.664,-120.977 137.297,-111.133"/>
<polygon fill="green" stroke="green" stroke-width="0.132516" points="140.605,-109.991 134.056,-101.662 133.982,-112.257 140.605,-109.991"/>
</g>
<!-- &#45;2&#45;&gt;25 -->
<g id="edge10" class="edge"><title>&#45;2&#45;&gt;25</title>
<path fill="none" stroke="red" stroke-width="0.103451" d="M153.83,-138.443C157.909,-131.078 164.167,-119.779 169.877,-109.471"/>
<polygon fill="red" stroke="red" stroke-width="0.103451" points="173.104,-110.868 174.887,-100.425 166.98,-107.477 173.104,-110.868"/>
</g>
<!-- 0 -->
<g id="node3" class="node"><title>0</title>
<ellipse fill="lightblue" stroke="black" cx="128.385" cy="-14.8492" rx="14.7" ry="14.7"/>
<text text-anchor="middle" x="128.385" y="-12.6492" font-family="Times New Roman,serif" font-size="9.00">0</text>
</g>
<!-- 21&#45;&gt;0 -->
<g id="edge11" class="edge"><title>21&#45;&gt;0</title>
<path fill="none" stroke="green" stroke-width="0.217534" d="M222.996,-73.4927C218.902,-70.9512 214.48,-68.2145 210.385,-65.6985 189.856,-53.086 166.353,-38.8153 149.787,-28.7848"/>
<polygon fill="green" stroke="green" stroke-width="0.217534" points="151.278,-25.5959 140.91,-23.4135 147.654,-31.5849 151.278,-25.5959"/>
</g>
<!-- 22&#45;&gt;0 -->
<g id="edge12" class="edge"><title>22&#45;&gt;0</title>
<path fill="none" stroke="green" stroke-width="0.198497" d="M33.7732,-73.4927C37.8672,-70.9512 42.2896,-68.2145 46.3848,-65.6985 66.9135,-53.086 90.4166,-38.8153 106.982,-28.7848"/>
<polygon fill="green" stroke="green" stroke-width="0.198497" points="109.116,-31.5849 115.859,-23.4135 105.492,-25.5959 109.116,-31.5849"/>
</g>
<!-- 23&#45;&gt;0 -->
<g id="edge13" class="edge"><title>23&#45;&gt;0</title>
<path fill="none" stroke="red" stroke-width="0.574846" d="M84.7808,-69.1523C92.9046,-59.2216 103.923,-45.7519 112.851,-34.8379"/>
<polygon fill="red" stroke="red" stroke-width="0.574846" points="115.566,-37.0471 119.189,-27.0909 110.148,-32.6149 115.566,-37.0471"/>
</g>
<!-- 24&#45;&gt;0 -->
<g id="edge14" class="edge"><title>24&#45;&gt;0</title>
<path fill="none" stroke="green" stroke-width="0.119851" d="M128.385,-65.4183C128.385,-57.7354 128.385,-48.6054 128.385,-40.2874"/>
<polygon fill="green" stroke="green" stroke-width="0.119851" points="131.885,-40.0103 128.385,-30.0103 124.885,-40.0103 131.885,-40.0103"/>
</g>
<!-- 25&#45;&gt;0 -->
<g id="edge15" class="edge"><title>25&#45;&gt;0</title>
<path fill="none" stroke="red" stroke-width="0.320413" d="M171.989,-69.1523C163.865,-59.2216 152.846,-45.7519 143.918,-34.8379"/>
<polygon fill="red" stroke="red" stroke-width="0.320413" points="146.622,-32.6149 137.581,-27.0909 141.204,-37.0471 146.622,-32.6149"/>
</g>
</g>
</svg>
